# xmcd CD database file
#
# Track frame offsets:
#	150
#	25172
#	48765
#	68692
#	91140
#	108657
#	136107
#	159327
#
# Disc length: 2402 seconds
#
# Revision: 1
# Processed by: cddbd v1.5.2PL0 Copyright (c) Steve Scherf et al.
# Submitted via: CDex 1.51
#
DISCID=58096008
DTITLE=Irakere - Vol. III - Grupo Irakere
DYEAR=1976
DGENRE=Latin
TTITLE0=Camagüey
TTITLE1=38 y ½
TTITLE2=En nosotros
TTITLE3=Juana 1600
TTITLE4=Moja el pan
TTITLE5=Este camino largo
TTITLE6=Xiomara Mayoral - Xiomara
TTITLE7=Iya
EXTD=YEAR: 1976
EXTT0=
EXTT1=
EXTT2=
EXTT3=
EXTT4=
EXTT5=
EXTT6=
EXTT7=
PLAYORDER=
